<svg xmlns="http://www.w3.org/2000/svg" width="1200" height="360" viewBox="0 0 1200 360">
  <rect width="1200" height="360" fill="#f6f1e8"/>
  <rect x="40" y="90" width="210" height="110" rx="18" fill="#243447"/>
  <rect x="280" y="90" width="210" height="110" rx="18" fill="#9f3f2e"/>
  <rect x="520" y="90" width="210" height="110" rx="18" fill="#34566f"/>
  <rect x="760" y="90" width="180" height="110" rx="18" fill="#5f6f52"/>
  <rect x="970" y="60" width="190" height="70" rx="18" fill="#d8843a"/>
  <rect x="970" y="150" width="190" height="70" rx="18" fill="#6d4c7d"/>
  <rect x="970" y="240" width="190" height="70" rx="18" fill="#405c36"/>

  <g font-family="DejaVu Sans, Arial, sans-serif" fill="#ffffff">
    <text x="145" y="125" font-size="24" text-anchor="middle">Manifests + Docs</text>
    <text x="145" y="155" font-size="16" text-anchor="middle">TSV, TOML, Markdown</text>

    <text x="385" y="125" font-size="24" text-anchor="middle">Movie Scripts</text>
    <text x="385" y="155" font-size="16" text-anchor="middle">render_movies.sh</text>
    <text x="385" y="176" font-size="16" text-anchor="middle">render_one.sh</text>

    <text x="625" y="125" font-size="24" text-anchor="middle">Simulator</text>
    <text x="625" y="155" font-size="16" text-anchor="middle">demo hooks +</text>
    <text x="625" y="176" font-size="16" text-anchor="middle">spacecraft renderer</text>

    <text x="850" y="125" font-size="24" text-anchor="middle">Frames + Clips</text>
    <text x="850" y="155" font-size="16" text-anchor="middle">PNG sequence</text>
    <text x="850" y="176" font-size="16" text-anchor="middle">x265 MP4</text>

    <text x="1065" y="102" font-size="22" text-anchor="middle">Trek Reel</text>
    <text x="1065" y="192" font-size="22" text-anchor="middle">Educational Film</text>
    <text x="1065" y="282" font-size="22" text-anchor="middle">Future Batches</text>
  </g>

  <g stroke="#1f1f1f" stroke-width="5" fill="none" stroke-linecap="round">
    <path d="M250 145 L280 145"/>
    <path d="M490 145 L520 145"/>
    <path d="M730 145 L760 145"/>
    <path d="M940 145 L970 95"/>
    <path d="M940 145 L970 185"/>
    <path d="M940 145 L970 275"/>
  </g>

  <g fill="#1f1f1f">
    <polygon points="280,145 266,137 266,153"/>
    <polygon points="520,145 506,137 506,153"/>
    <polygon points="760,145 746,137 746,153"/>
    <polygon points="970,95 955,97 966,107"/>
    <polygon points="970,185 956,178 956,192"/>
    <polygon points="970,275 957,266 954,280"/>
  </g>

  <text x="600" y="330" font-family="DejaVu Sans, Arial, sans-serif" font-size="18" fill="#222222" text-anchor="middle">
    Text-first control surface, simulator-rendered output, agent-friendly iteration
  </text>
</svg>
